<svg xmlns="http://www.w3.org/2000/svg" xmlns:xlink="http://www.w3.org/1999/xlink" viewBox="0 0 676.77 119.69"><defs><style>.cls-1{opacity:0.7;}.cls-2{fill:url(#linear-gradient);}.cls-3{opacity:0;fill:url(#linear-gradient-3);}.cls-4{fill:url(#linear-gradient-4);}</style><linearGradient id="linear-gradient" y1="59.85" x2="676.77" y2="59.85" gradientUnits="userSpaceOnUse"><stop offset="0" stop-color="#f0f" stop-opacity="0.3"/><stop offset="0.56" stop-color="#6b94ff" stop-opacity="0.36"/><stop offset="1" stop-color="aqua" stop-opacity="0.4"/></linearGradient><linearGradient id="linear-gradient-3" x1="3" y1="59.85" x2="673.77" y2="59.85" xlink:href="#linear-gradient"/><linearGradient id="linear-gradient-4" y1="59.85" x2="676.77" y2="59.85" gradientUnits="userSpaceOnUse"><stop offset="0" stop-color="#e900de" stop-opacity="0.6"/><stop offset="0.51" stop-color="#fff" stop-opacity="0"/><stop offset="1" stop-color="#4ff8ff" stop-opacity="0.6"/></linearGradient></defs><g id="Layer_2" data-name="Layer 2"><g id="_2" data-name="2"><g class="cls-1"><g id="Textbox"><rect class="cls-2" x="3" y="3" width="670.77" height="113.69" rx="56.85"/><path class="cls-2" d="M616.93,3a56.84,56.84,0,0,1,56.84,56.85h0a56.84,56.84,0,0,1-56.84,56.84H59.85A56.84,56.84,0,0,1,3,59.85H3A56.85,56.85,0,0,1,59.85,3H616.93m0-3H59.85a59.85,59.85,0,1,0,0,119.69H616.93A59.85,59.85,0,0,0,616.93,0Z"/></g></g><g id="Textbox-2" data-name="Textbox"><rect class="cls-3" x="3" y="3" width="670.77" height="113.69" rx="56.85"/><path class="cls-4" d="M616.93,3a56.84,56.84,0,0,1,56.84,56.85h0a56.84,56.84,0,0,1-56.84,56.84H59.85A56.84,56.84,0,0,1,3,59.85H3A56.85,56.85,0,0,1,59.85,3H616.93m0-3H59.85a59.85,59.85,0,1,0,0,119.69H616.93A59.85,59.85,0,0,0,616.93,0Z"/></g></g></g></svg>